<mxfile host="app.diagrams.net" modified="2024-07-18T19:54:19.161Z" agent="Mozilla/5.0 (Windows NT 10.0; Win64; x64) AppleWebKit/537.36 (KHTML, like Gecko) Chrome/126.0.0.0 Safari/537.36" etag="aZMEQK3AbNq9sgFbVEZ9" version="24.7.1" type="github">
  <diagram name="Page-1" id="-1PyUt6zDlgLntFL1qlp">
    <mxGraphModel dx="389" dy="206" grid="1" gridSize="10" guides="1" tooltips="1" connect="1" arrows="1" fold="1" page="1" pageScale="1" pageWidth="850" pageHeight="1100" math="0" shadow="0">
      <root>
        <mxCell id="0" />
        <mxCell id="1" parent="0" />
        <mxCell id="3dPtCzeEaGMLfLRVQXNq-24" value="Signup" style="whiteSpace=wrap;html=1;" vertex="1" parent="1">
          <mxGeometry x="170" y="710" width="50" height="100" as="geometry" />
        </mxCell>
        <mxCell id="3dPtCzeEaGMLfLRVQXNq-25" value="" style="shape=stencil(lVfZbttADPwavRJL7v2cpv8RIE4t1LUDx73+vlQFWV6uMobfZIsjHsPhcgf/9LF/ed8N4j4u59P33e/x9bIf/JdBZDzud+fxok+Dfx7809vpvPt2Pv08vs6/318my+npx+nX9IU/M04KcZpQ4v7O/zgq9f8fX2f7w3i8sY+OUm7sI1VgnzI539izUCyfA3KlXBqARhSBh5IpthlIpRQ/B1Qh5xqAVwADgKcSGkCoVDMAhCXiBZAceRRSWIp+BVQqAgDR5pALOZRDtDyUgENKJK2HUqgkAMi2SpWpgJDYOZtE1SRQTHV5fQNIoJk0Cc8toJJ43BvJAhKguiTK0QIq8FDc8voqiLUO24qIJF0SiInsLHUKiAGINFHoPDjgIQWSYIkIoEzJU5UWcG2XbUCkUC0AMZeKnRtKfgbtlz2FYAEeeFCF1c4DI6pDpwgMqDolOg8opEnVnQeUtNLk/SNlnVqt4wERN7WayQG3hn7vsebTcZzEAlB76+BKnR6QgIpQaXO4q9G8MTfQGMi8MTfQoNGDNHZJQEEEyskSgYalarSIBaBx/DhAdwUTEsNjbkq63TbuHEI6BVLbrneOudT1xp2DVAGhTXo6qtEk0+8ZgMocM82tRnXpcojpSNx60IUmoyrpRtVKTlemCniIsmxUVwATAz1oALUFsCcPQhLt1pa4DCcf2+NBSMCSqBVvK8RQnd1iwnDAuOXtas4gV/XdVt/BPSnY/nHLJNgml3I25oJ2qmV9X80dGBJKYyjWHkTD3WB0UF5rcqs9g86U7jBQqkE8Wh7pqgnEON2PbDnR/ej+fUof1svY23g4zHe52/f28qZ/zRc///wP);lineShape=1;strokeColor=default;" vertex="1" parent="1">
          <mxGeometry x="308.55009166619243" y="573.7742594112701" width="3.5336490268372875" height="32.78534748110258" as="geometry" />
        </mxCell>
        <mxCell id="3dPtCzeEaGMLfLRVQXNq-26" value="" style="shape=stencil(lVjbUlsxDPyavGpsy9dnSv+DGULJlBImQC9/3z3NOI3lnCW8hUSLJGu1kr3Rm9fHu5ftJrjXt8P++/bX7v7tcaNfNiHsnh+3h90bPm30dqM3D/vD9tth//58f/z75W6xXD792P9c/sPvIy5IrgsouD/HL3yWpv+++Xq0f9o9n9l7L82PgCStrQOCyvLbOUClEIAWcWkEOEkkpOSkjoAsqa7b59D/XbdXiWXdvvgpA4kknpKljPE4cW7dvkbJ2dinsG7fnJQxnsjtkxRT4yAtEkCR1EZAE80EUC0pAorIPDTrQZOkRGjnTmd4SjqKJwi4aOOppkBdAKAjLbLrhVnLOowecpFKmN3AyzgASpRAmNdQ2DICmhQWkrMeKgpBPIB7bvTQfC/NZXIXGxKCVFLqjDoYAI7BE0ASHdsHfIwEkJrUMWlUxhMBSNEWbiEw6ehYJZqQmkRShxhsywGQSUgQPXUWUAhbFTo8A4gHiGKbcqjkWDEIqlEBx4UMk8AI6xIT4YYHdfxUCMI+jA41ZELLEe2D0pUxCbBPSUMAkA2ZohQOaCZpTDx2Sjp58DwHzAeTg6OlXiZysQDPjrVMLQcAy6HataHxGY0BUoNNmg1RzMBsQkIpCV0xlJ05JbQ58zADUheSa0MqdCxeSLr22l97rK0L+rWFO8ntKjUmD5VxaSZfk8Bb1NIbc5KN9rmBoDyfa9HUdWRVBEzSSrm0yIwZEIHnMAsZ2MVb1Eql6+vHlWoMAJvsnwYsAyJYAGsgjCA7dz8AFPHZAjwfo3buIgcilbFIGadi5RMoqfhiAaxwaWrRWukemuvkIUskOWAnbGaHi1Tuqxc/cqmGvqRdBmTxZg/F7ktCqpOQ4U6USQMt4j4mnTOV+3bazU/beuN3FLVJJ540AOZaiQtE4SHFsac1dzquJZ1H8oVKb7pLy4+nhJnUWKVL1+qzuzRTvjppK1+lsd1ncweiG18JtqOhOsQ+a6fNiap0+qCmbmQqtNyxx4Nqhzp0MLC1ONoMfKNbAAJIYy+EQO8C2q9HJ3vtt+XLEUkOkz3bxaa7t/aRvWIfqrVnA911AT3LtxCxcPYaDXum2a7r7VkTBG5vugweSYXdxAi+Uzk7+7GVsTu3m15XKh/M9nywxLH7sLfLPOw922s/+aL3sT0+/H8+fNg9PR1fH89/t8+N+Or4VKm3fwE=);lineShape=1;strokeColor=default;" vertex="1" parent="1">
          <mxGeometry x="308.4470807799977" y="570.9438887284231" width="20.82549820685539" height="17.86905670224769" as="geometry" />
        </mxCell>
        <mxCell id="3dPtCzeEaGMLfLRVQXNq-29" value="" style="shape=stencil(7VpJchsxDHyNrigC3M9Z/uEqO7Eqju2yne33AaNwMgRHPVHKx9xkmT0EsTQaHB38m+fbq8ebg7jnl6eHTzffjtcvtwf/9iByvL+9eTq+6KeDf3fwbz48PN18fHr4cn99+vvxqq1snz4/fG1P+H7CRaFQG0rcj9M3LOTDr2/enwB3x/s1wJHEEeDIy3lAiFQmwO89twFMtYwApuTPA3wmCSPAU3IAIFTNoRNlcAYplPMAEEcVAQLlcQdJFIFJ+rzIA8B7CvE8gCPV8dDNbwkA2J4hMjng1tINXtZX8uX8+kTeD+tTopBBJhGP9mT9BrgoWfsLYw/p8cYDlEiCPBQpyQhY9twOGvesWQC5x30bsBiwAAqMgdRejKsdKji0Zo3JIwUEUM9aPJntoQPwkqYZj+VZAky8kCwBFNcdvZ0YQm7cQTMjgMyLkdzopczkQRwUEMc4pEAOmTQBoqY7iEOccikEyBgNMO7glXRAajSA4aTcH3EWMNYDVwo7hx4rWnlVsFvDaJJSPaqHtsMY6UqMj1DHZM2wM2iQwpgYiQQlUiYeT6wFCygpLsW4RBkWWyxUDGmTQ1lULefh9cnZnMD2JO519XfnTWJrP8GE0PV5TDkcr+Q7G67yARCwrmfT+XHCNcBYlloDgiySzm2rKhMUArE9wWvnxwBTlqqYHA6C5SLppH92B9OZPRXkVj20CZuDbJe0i1ULcCAOWbqUWO8AuChny0UKSKCUiwpbtoAK3FqWMK0BoHiqWpwmAMilqmoiWEBBAO3NxkvcE34bUGzyqaMdSI1aLUFmTx6khgKKibRmKwCwc1aG5YTdNJFe1mOBrlCXEl4JDI8Apfe9lZSM6NTZuknTC0lJDbWvFgBNit3tK5MKAgQrz/XQBYXa9+ctbq2w5BQQTTJlyGQbgAhrdMMk3xv8Xx5a8xtJmNmtTRmiSE+BazV6UWo0FkCAKfnUJKTb5vTWQ0OT5gIKUD9v16jHvGFpoEDltkE0Fef3RGVaEIJCPZGllhyaJ2c6bj3jVQFTh2gscFEPajwD+ujc5doOO31ULCACNm6dejIJBa5pAUNMHs64KkLt2C14PsxW5bYGgWR0srJSSw5dQbU5w+hcrJjaDqOXdjRZA4yB21F9apKpuB1dOQ+UO8q1TW/mVgxr49cZ95BXX2PcQ/b8H/cuH/fQDeBrjHuIWv5h3DNzyc4NRgOMGbdzR9JGpdGknVuYBhhzaOeeJ02X1e0m6SKvtrrAE6gZ91KAfKoAMRJGoObRxE6mN7u9Gz1DLSX2e8rtS0bdYfRSZVg7Idmb1aZG0Q5ii60mOFtpXE1faxIFvZYItomoCEKXvVouRg436QdM0np3o0kr6bctDTOVaQvE2cxWceup4V1sT+ZVHBIgMe5RWl1wM3DSLG0LRfB8Z+/DVdCgyU26UF7W40kvUDEcjC+Gi32+Zi58iyG2CapQCIAvOE1XXAmKHWE7IylJolrT55kYsMD7JO/s67MMj+CjbbSaQ6j42VYaQ6UTouUvXDUq/oxwYfgiKS5vvv40ckHCQu0xSQHn5qY2x7qPfVg6t15G/ycs7NI003a1ena9YRVIpc0ey1twtpuVY3sbiCNgtSzjIwTb+FnwTBFsw1FAQWrQWzXFAtuBAsx7MwXAtLv45f8+QD/8+a3Bh+Pd3emnCuv/298m6Fen3zX4dz8B);lineShape=1;strokeColor=default;" vertex="1" parent="1">
          <mxGeometry x="328.6804024380601" y="587.5571618034295" width="26.893115008365214" height="15.176932402911612" as="geometry" />
        </mxCell>
        <mxCell id="3dPtCzeEaGMLfLRVQXNq-30" value="" style="shape=stencil(7VrJch03DPwaXVlcQfLsOP/hKsuRKorkkuUsfx8wMucNG296pENuvsnPwHAB0GgAvEkfvt19+np7E/23l+en32//uv/8cneTfrmJ8f7x7vb5/kX/ukkfb9KHL0/Pt789P31//Pz676+fhuT464+nP8cX/n7VS8U1GVrR//PjF+frfz/8+ir/cP+4l4+ur/LR1U7kvQsJ5IV8P4r9vngin50vIF/IfmJwpb3j+6G5jPuvhchn1/0in+l+QnB93Y+41o7lm6txEQ/eefJ9cXHdTkguk/Nml+oqLy5nYl8nYZVvToTJw/ejd5Hcp+4W3CG6GNj+M3w/u0D8TVyJKN+Yfb2r64FjcZ5sSB0CA0BdhK1Q0YNU4YfRj1y6FlRITKG4mFcFNSMLmmYUomtkhRRcALMFrpBcBzt4V5gfiavgqH1e9HWF7sp6Br1oIZGWdcegsAXTdYXtEjcF9SXmq8Wl1XBnwSkztjaFMO/tuoL6EoSn5+Gjl7jCUZsBe1W+KLyvZxYKdyVgNOgVMfnoEsJ15vJoNJcIfBXNdgnkPfEilU+rvOIBcVOVB7z20w2vy29odZFP7LwZPcLPDV6XL1e+z/ZTnBSQz+z74nwDeZZey5ZdLvKN7UcQftWhSACofAOYoOlM5TFgXCUgMb4PyOgCia9SkW6VGUCH8uv+G6UfQ97k+8gOUM2FNlf4CgInzpQxqgIyrj6x+1BhjTElqQx4hwJwLj/zz5ECsIScKY6qAiC1AmXkK0AcKBKwfKaOVNYVSnOBR2YB5E2UeSlUxHUF6VwhYsashd+Sn9R+c9ZIuVFuyB6b3hvLZzLRfyr0QONH7ZpX/O2Zp9iIzteFJ/GABUjXkoEopDYJ+yUnK4cne0pK51b/7up9jE1pTQOHqBQ2lK/hvZa55iHBC2iIwhXS6kxNaGbTM4DlGk8lekt5DbmaaamZqomgPsP8yNRA8IQXC9mgsegZWARlXGEkJIICEmf62+EMs/SIeQAmHkEj5g30FUIBmvElDXPGeZrhDKrgmUKftcSmUGlG6XGStJ0Co6nq/cEoZLZCQ3BVBRaiqmC3FMmhR8hnVEgEvlVBzC0VQgVUoXVUYL2IHW7tLMfKC10CnanRtKgKNaFCY4boE1V27soYohqiZ1RgjKmbjpAqMA6t2NuNAl2hIpKdnaGaqurklgzNPbODIG8dlmZbMn284Uws5NT9EyrQGK1IHkZA8Bj1xr9pyDVMEGdB3Q2S6ZZ4PBRzBpZG+7uhr2N/UQ0X+ApWgZVMV7bUzraEh+4U78e1mpg+MZx4VGBl8fsVivHWPjuVRymomZhmNLH7yYT3CsT5mimlR6ImVGCQc6ACnrLvKrPVv1PoxNLVY/dj1BQE+cS0h7XMocWluGDLJtbVM84ngRKmnLDRKIW2Y1NHuFfOxW5JeSj0oCo/dDLsRKkx7a5q6bcabjgLq1G2BvKO3tN6IOOhtc5iTDcJ5unO0Ts17IScKGSP8aA5iRaXEYv8nuhsS4tLVFCH5/3bbIog4QVyXldQds1W0ICEUlF9SVgbISKFU2+lHb6ErqFBm1mHKc9OyS5EmR1UAajx6J2wQxdDQ3l+GAoAxif9H1UANnPSYSqI3mc9rDwx4q1dsoxs/awPl2cnc9/p4w0jMb1ExmZUIUE7h7JQNSswh0KLrOEGq3ykrZmfw4DzYYCR/zkM2Mv/v8MAwSZamtOuNwZkmf2lw3hZIaKeDc9g2N5pr9QO80Kgg2eFZZyQJj5S3RpBm8L2vuIow0LIBOEsIZtubKVcKgds1AdO5JW4VPAKTythzRQA1DFS5p8i9t3VkVjgqF0LjOf5GDaKmecXCu3Rzm1l9qSv95KaeRhSaSspGPKlCsJfbgA6xm0Yd716wWgb8gwu0FdjpY3SYMy8FTNX5f10s53RIjGaac6NpzPEZh6JXej0oYrH7K02ZJ1kc95QKMMx2T7E+cvB/Xd8utBZgT3bIBcwZeA7XlqYh2zMumby5CnFDNu47yLPhkJ6neCens7aogE6PwdX1+UrzrU8L0o9xqOnyS8lHNr62VI5Khgzyhf2fZOMPW0npor9dT9x+0i+ILlh0ZKqJaMM31S+Q2Li57WpkpLj8X0AXEqekpllRZ72zBQ/8oeBFV8eRYrO9gFY4kNUQXg7eeha5mjv7fL8Ia3+cXmF++X+4eH1Ee/+//HVrv70+uI3ffwX);lineShape=1;strokeColor=default;" vertex="1" parent="1">
          <mxGeometry x="351.09145065062285" y="586.2435580263182" width="41.16615812720679" height="60.97109003783013" as="geometry" />
        </mxCell>
        <mxCell id="3dPtCzeEaGMLfLRVQXNq-32" value="" style="shape=stencil(lVnLctswDPwaXzEkQYLkOW3/IzNxGk/TOJOkr78vVA8VEaS2zs1VtSEILBYPHfjm9eH2+XgI7vXt5fzt+Ot09/Zw4E+HEE5PD8eX05v+OvDnA9/cn1+OX1/OP57uLv9+vl3eXH59P/9c/sLvCy5UKnFBBffn8iRVcvnfky8XwOPpaQPgRN71gETi9wHRk+Me4DEgE/cnLE/CPiAF8qUHMKUCAIlq7gBcqDIACPneS+yJEwS4HhBiM3LPpFA7gK/kBQCYnAFEqsCkqJHu3eodCTghRgq9lypldIAjF/oDcKA5Ukw9QChEAFCDe0DwVIBJIVMwgNK8MAckC+CAAb75ZOWeIwZ38IW496qyOwPuqU/ikD8FUEl5kH0PUDaCQPtAtc8fWR09B3iKBpAa36eAgXo5kANerRSkf19gFPT93p6i2QGYp8w31C6ZKnJRJDGAArMtBJI+aqVSBSKmgmJ0tbqmg3OAWAFQQET5rFQdTkBhVmIamVRAqUCTIqVeAareClxavFVuBTAInOThDr6JyBSQucV1A0jApFwp8QAAcSjRSv1iErjDQoQ0eAkErmr1GUxyQAFqthqjgAACV4tNaAUgttbaRG4FBChKCigmDrHxdydFXZOIFZEoYpuycZNQxgBnbp2blXtusoEoULvVAMs+lSpkUrLavQBQ5GIj58akiqSYm0hsAB6dEIaUy80NewAeAgfdOgJiS8Jdk4yXuAn6tZcOFFBBGd3qobhOArcK+rXUUAC6w0g+34rStfQO2K1jAjE8YZajsdWMa2VAYJWbCE2mBNR1kTKjfau4XSuW9X+Rs4GocD75MGBSIVQFQOQmNai0nu7aKldgaZ/UUQWASE8qNe6YJr1AhVVu6TZGrQQmxTxR4wgurR2TDCahisLD2LcQHpygE41tsSoMXBCbD5sk3JtQyngEAPjc6sEGgOY49bqJQ4FayXZkUvFEw7SzKwptQzP4+4MoFYH9lbPEKw72Ms6OrTnB7YG3xUdq49WOf+x0FeA0k+x9k0oaIN3aFa3vB9hDF0q9/5eJFQ2gwY4yrFmAxrFkq61O3REVnnUhtJnrI0oCzbOe0/okoflNe02TZzrRAaeqASYxC8wynfeMGCUYBF7Xcu39NS3m2iVtCHl/H8lE8nZ74+DIncRuSiKcesTZiqNDOCrkwkMEMgm4sQLMGkNNQuskBZh+R4OCNmKah9WsAWtrHuZOqs2A1UkCe4uknXIfhVhbXOYAlcKeFprMKDljbE7cqAVKHdYRpweIh3tAZrsFkIQ3GcHeQQFQIL3tjwRPGLyuIbYAVMidFRgFJBBpLYLiLACtPhRgVFsizIdFhs2lGZZBBZiV8sJfZFJps+m28IDCtmieqWx4k6EAMSbhbal6yfQimlKCTPro94wrAPrj/fPJ/enx8fL1Zfv/9nOLPrp8quHPfwE=);lineShape=1;strokeColor=default;" vertex="1" parent="1">
          <mxGeometry x="380.6391759334865" y="578.0502605763" width="21.948535487889178" height="20.64518738710376" as="geometry" />
        </mxCell>
        <mxCell id="3dPtCzeEaGMLfLRVQXNq-33" value="" style="shape=stencil(lVjJUltBDPwaX1WzL2dC/oMqTHCFYArI9vfpF9c8njR2Azdj1J7R1mrNLl693N887XfBvbw+H7/vfx9uX+938csuhMPj/f758IpPu3i9i1d3x+f9t+fjz8fb099PN4vl8unH8dfyC39OuBbFhwUV3N/TN0Vq/v/F15P9w+FxY1+TJG/sS7tsX7LEZu3dZfsM+2Tt/WX7VMRXZV8llMv2sUp3yr7R+0QnLSp776SQA0IWpx32USIB+C7NAIrETgBZctGALqUSgJOoY4RLdnaCE5cVYAkDybJvEg0gSyNpwwWSAfTxzfk8BAnahxQ4oErVUUoo3UQqKUjXnYDaKpEAmiSduNRp7aG2gwbkIJlcqaA5tQ+5SAqkO714c0Knma5tas9Aawl80Uz/JwnkhIbyNg2N+iVh7UVc14AmgTjdu3W6IpWs4xzqW5MA4lDZnapkXRstSyX13aNkfafWpLG4IhE6rt3TYmrBNjXOZGGq2dZ3B1URQOlSdeY652KUa9Zcibh10qMZYdWp7k06iRL6JZgrcepbmlqHdZP887wxMROOYE2KAdKLBXhClsEPWtkCSJj81EII0zt0bMPUxBMfMHG6SQS+YSeU6YRMowSAM1GKNNUAJAMIlPt8laSbGh3k2AnoeeO0G5c8nzhnCR/kllim0aNuApDiC8kO3jf6vDRHc7I+MCYLZSq+QPth0VMmrGhzDvAmrKskunglc0IZ7HnRaQOoQ6WdB8SpvBulbyQuzC1Kim8pjWABjlxpKb6pRRMD1KEiN06zWloaKNqwunda1DBfopleSGBq0c5b1JkreUlMiLahLTblHTlVWnmPAcESBzLuFhAJa3waEDGWp56uDNDtzILTjFvT3ECeTnYIUQtwQ5qen+zeCqbFaVKtZd0KN/qH9UMNlshaoWGtk/puidYSlGvSggkSqjKFtVbOqhI7HSit2qG4CFFSrc2Nf68AT8kYGs5sQRBpVMNhC9I+lHVyny+Nbn3AQsC0RvZWruMn2PqKNcxpHzK/UkyWZnAm2yCgyJL2YVnMeE97AyhUfPuppyE02UApdohG8D/TV1Y4IAiMu6eFJnBJicVSUwxObCRpZawWq4yGoGSjwdkR7fma6POIx+adpTLl4weJvj38UKJHwPWN0pB/5yNUxmKxhogKqwRRou09ffYBB5uHKzd+4IMPaY5meH6oc5y8podAvie1tSA39+H23f4+owks2GbOOmmMS4tdoP1YIC7ZGwEW6NYG+27rge0vs32kHT/fJ9F6mP3N/B1mimceUumD+eLzeK4HNBDL1ycfnt+3x4e3V+67w8PD6ZF8+3/7Ko6vTi/q8fof);lineShape=1;strokeColor=default;" vertex="1" parent="1">
          <mxGeometry x="404.9608803125665" y="582.2063849375322" width="17.603842732035073" height="20.214727381302577" as="geometry" />
        </mxCell>
        <mxCell id="3dPtCzeEaGMLfLRVQXNq-34" value="&lt;h3 style=&quot;font-size: 7px;&quot;&gt;&lt;font style=&quot;font-size: 7px;&quot;&gt;1. &lt;strong style=&quot;&quot;&gt;User Registration and Login&lt;/strong&gt;&lt;/font&gt;&lt;/h3&gt;" style="text;strokeColor=none;align=center;fillColor=none;html=1;verticalAlign=middle;whiteSpace=wrap;rounded=0;" vertex="1" parent="1">
          <mxGeometry x="160" y="700" width="130" height="10" as="geometry" />
        </mxCell>
        <mxCell id="3dPtCzeEaGMLfLRVQXNq-35" value="&lt;div&gt;Profile&lt;/div&gt;Details" style="whiteSpace=wrap;html=1;" vertex="1" parent="1">
          <mxGeometry x="230" y="710" width="50" height="100" as="geometry" />
        </mxCell>
        <mxCell id="3dPtCzeEaGMLfLRVQXNq-43" value="" style="group" vertex="1" connectable="0" parent="1">
          <mxGeometry x="290" y="700" width="130" height="110" as="geometry" />
        </mxCell>
        <mxCell id="3dPtCzeEaGMLfLRVQXNq-40" value="Daily Ads" style="whiteSpace=wrap;html=1;" vertex="1" parent="3dPtCzeEaGMLfLRVQXNq-43">
          <mxGeometry x="10" y="10" width="50" height="100" as="geometry" />
        </mxCell>
        <mxCell id="3dPtCzeEaGMLfLRVQXNq-42" value="&lt;div&gt;Progress&lt;/div&gt;&lt;div&gt;Page&lt;/div&gt;&lt;div&gt;&lt;br&gt;&lt;/div&gt;" style="whiteSpace=wrap;html=1;" vertex="1" parent="3dPtCzeEaGMLfLRVQXNq-43">
          <mxGeometry x="70" y="10" width="50" height="100" as="geometry" />
        </mxCell>
        <mxCell id="3dPtCzeEaGMLfLRVQXNq-44" value="&lt;div&gt;Revenue&amp;nbsp;&lt;/div&gt;&lt;div&gt;Track&lt;/div&gt;&lt;div&gt;&lt;br&gt;&lt;/div&gt;" style="whiteSpace=wrap;html=1;" vertex="1" parent="1">
          <mxGeometry x="420" y="710" width="50" height="100" as="geometry" />
        </mxCell>
        <mxCell id="3dPtCzeEaGMLfLRVQXNq-41" value="&lt;h3 style=&quot;font-size: 7px;&quot;&gt;&lt;font style=&quot;font-size: 7px;&quot;&gt;2. &lt;strong&gt;Ad Viewing Dashboard&lt;/strong&gt;&lt;/font&gt;&lt;/h3&gt;" style="text;strokeColor=none;align=center;fillColor=none;html=1;verticalAlign=middle;whiteSpace=wrap;rounded=0;" vertex="1" parent="1">
          <mxGeometry x="320" y="700" width="130" height="10" as="geometry" />
        </mxCell>
      </root>
    </mxGraphModel>
  </diagram>
</mxfile>
